<?xml version="1.0" encoding="UTF-8"?>
<svg version="1.1" viewBox="0 0 16 16" xmlns="http://www.w3.org/2000/svg">
<g transform="matrix(.048435 0 0 .067305 11.538 1.5172)">
<g transform="matrix(1.3333 0 0 -1.3333 -128.59 157.99)">
<path d="m0 0c-12.193 0-23.77 4.685-32.598 13.193-8.865 8.543-13.747 19.768-13.747 31.607 0 24.702 20.684 44.799 46.107 44.799 10.507 0 20.304-3.3 28.332-9.544 6.47-4.916 10.557-9.968 12.465-15.42l1.657-4.735h-16.128l-1.021 1.81c-4.602 8.158-14.676 13.64-25.067 13.64-17.239 0-31.263-13.705-31.263-30.55 0-16.846 14.184-30.551 31.62-30.551 11.341 0 22.345 7.026 27.005 16.651h-42.925l5.937 14.25h55.565l-0.319-3.854c-0.937-11.305-6.129-21.757-14.621-29.429-8.47-7.652-19.479-11.867-30.999-11.867"/>
</g>
<g transform="matrix(1.3333 0 0 -1.3333 -78.238 131.76)">
<path d="m0 0 18.379 25.634-16.122-0.161z"/>
</g>
<path d="m-68.769 143.78-0.212 0.268c-14.761 19.227-37.109 30.253-61.316 30.253-42.595 0-77.248-34.653-77.248-77.248 0-42.595 34.653-77.248 77.248-77.248 24.347 0 46.773 11.131 61.532 30.537l0.16533 0.21733 38.688 45.821zm120.61-147.12-67.98 82.923-35.793-42.393c-18.833-24.625-47.377-38.743-78.361-38.743-54.371 0-98.604 44.233-98.604 98.604 0 54.371 44.233 98.604 98.604 98.604 30.839 0 59.312-14.017 78.148-38.465l36.248-44.216 71.621 84.825h27.949l-85.801-101.62 81.583-99.517z"/>
</g>
</svg>
