<?xml version="1.0" encoding="UTF-8" standalone="no"?>
<!-- Created with Inkscape (http://www.inkscape.org/) -->

<svg
   version="1.1"
   id="svg2"
   xml:space="preserve"
   width="1056"
   height="816"
   viewBox="0 0 1056 816"
   sodipodi:docname="GXdev twitter.svg"
   inkscape:version="1.1.2 (0a00cf5339, 2022-02-04)"
   xmlns:inkscape="http://www.inkscape.org/namespaces/inkscape"
   xmlns:sodipodi="http://sodipodi.sourceforge.net/DTD/sodipodi-0.dtd"
   xmlns="http://www.w3.org/2000/svg"
   xmlns:svg="http://www.w3.org/2000/svg"><defs
     id="defs6"><clipPath
       clipPathUnits="userSpaceOnUse"
       id="clipPath18"><path
         d="M 0,612 H 792 V 0 H 0 Z"
         id="path16" /></clipPath><clipPath
       clipPathUnits="userSpaceOnUse"
       id="clipPath48"><path
         d="M 0,612 H 792 V 0 H 0 Z"
         id="path46" /></clipPath><clipPath
       clipPathUnits="userSpaceOnUse"
       id="clipPath82"><path
         d="M 0,612 H 792 V 0 H 0 Z"
         id="path80" /></clipPath></defs><sodipodi:namedview
     id="namedview4"
     pagecolor="#ffffff"
     bordercolor="#666666"
     borderopacity="1.0"
     inkscape:pageshadow="2"
     inkscape:pageopacity="0.0"
     inkscape:pagecheckerboard="0"
     showgrid="false"
     inkscape:zoom="0.36048581"
     inkscape:cx="181.69925"
     inkscape:cy="668.54226"
     inkscape:window-width="1920"
     inkscape:window-height="1048"
     inkscape:window-x="1920"
     inkscape:window-y="0"
     inkscape:window-maximized="1"
     inkscape:current-layer="g8" /><g
     id="g8"
     inkscape:groupmode="layer"
     inkscape:label="GXdev"
     transform="matrix(1.3333333,0,0,-1.3333333,0,816)"><g
       id="g1324"
       transform="matrix(1.9763173,0,0,1.9763173,-423.79155,-24.364741)"><path
         d="M 603.867,78.877 H 228.744 v 173.581 h 375.123 z"
         style="fill:#727272;fill-opacity:1;fill-rule:nonzero;stroke:none"
         id="path10" /><g
         id="g58"
         transform="translate(328.8154,131.5583)"
         style="image-rendering:auto"><path
           d="m 0,0 c -8.916,0 -17.38,3.426 -23.835,9.647 -6.482,6.246 -10.052,14.454 -10.052,23.11 0,18.063 15.124,32.757 33.713,32.757 7.683,0 14.846,-2.413 20.716,-6.978 4.731,-3.595 7.72,-7.289 9.115,-11.275 l 1.211,-3.463 H 19.076 l -0.747,1.324 C 14.964,51.087 7.598,55.096 0,55.096 c -12.605,0 -22.859,-10.021 -22.859,-22.339 0,-12.317 10.371,-22.338 23.12,-22.338 8.292,0 16.339,5.137 19.746,12.175 H -11.38 l 4.341,10.419 h 40.63 L 33.357,30.196 C 32.672,21.929 28.875,14.287 22.667,8.677 16.473,3.082 8.424,0 0,0"
           style="fill:#ffffff;fill-opacity:1;fill-rule:nonzero;stroke:none"
           id="path60" /></g><text
         transform="matrix(1,0,0,-1,441.4355,166.5469)"
         style="font-variant:normal;font-weight:500;font-stretch:normal;font-size:27.5721px;font-family:'Avalon Medium';-inkscape-font-specification:Avalon-Medium;writing-mode:lr-tb;fill:#c5c5c5;fill-opacity:1;fill-rule:nonzero;stroke:none"
         id="text64"><tspan
           x="0 28.785273 52.00098 72.983345"
           y="0"
           sodipodi:role="line"
           id="tspan62">GREY</tspan></text><text
         transform="matrix(1,0,0,-1,536.55924,166.5469)"
         style="font-variant:normal;font-weight:normal;font-stretch:normal;font-size:27.5721px;font-family:Avalon;-inkscape-font-specification:Avalon-Book;writing-mode:lr-tb;fill:#c5c5c5;fill-opacity:1;fill-rule:nonzero;stroke:none"
         id="text70"><tspan
           x="0"
           y="0"
           id="tspan66">X</tspan><tspan
           x="23.077848"
           y="0"
           id="tspan68"> </tspan></text><text
         transform="matrix(1,0,0,-1,441.4355,146.6514)"
         style="font-variant:normal;font-weight:normal;font-stretch:normal;font-size:16.5794px;font-family:Avalon;-inkscape-font-specification:Avalon-Book;writing-mode:lr-tb;fill:#b3b3b3;fill-opacity:1;fill-rule:nonzero;stroke:none"
         id="text74"><tspan
           x="0 11.257413 19.497374 29.710285 37.784454 44.084625 57.116032 66.085487 80.012184 88.086349 99.327187 105.84289"
           y="0"
           sodipodi:role="line"
           id="tspan72">DEVELOPMENTS</tspan></text><g
         id="g76"><g
           id="g78"
           clip-path="url(#clipPath82)"><g
             id="g84"
             transform="translate(358.8427,140.9788)"><path
               d="m 0,0 -0.106,-0.133 c -7.362,-9.591 -18.51,-15.091 -30.584,-15.091 -21.246,0 -38.532,17.285 -38.532,38.531 0,21.246 17.286,38.532 38.532,38.532 12.144,0 23.331,-5.552 30.692,-15.232 L 0.084,46.499 19.382,23.643 Z M 73.933,73.382 H 60.158 L 26.25,32.02 8.396,53.166 c -9.393,12.283 -23.632,19.325 -39.086,19.325 -27.12,0 -49.184,-22.064 -49.184,-49.184 0,-27.12 22.064,-49.184 49.184,-49.184 15.382,0 29.585,6.992 38.98,19.187 l 18.081,22.055 35.681,-42.26 4.547,11.127 -33.36,39.511 z"
               style="fill:#ffffff;fill-opacity:1;fill-rule:nonzero;stroke:none"
               id="path86" /></g></g><g
           id="g88"
           transform="translate(317.4834,154.0643)"><path
             d="M 0,0 4.293,10.507 15.312,17.377 11.943,6.945 Z"
             style="fill:#ff9a00;fill-opacity:1;fill-rule:nonzero;stroke:none"
             id="path90" /></g></g></g></g></svg>
